<?xml version="1.0" encoding="UTF-8" standalone="no"?>
<svg
   xmlns:dc="http://purl.org/dc/elements/1.1/"
   xmlns:cc="http://creativecommons.org/ns#"
   xmlns:rdf="http://www.w3.org/1999/02/22-rdf-syntax-ns#"
   xmlns:svg="http://www.w3.org/2000/svg"
   xmlns="http://www.w3.org/2000/svg"
   xmlns:sodipodi="http://sodipodi.sourceforge.net/DTD/sodipodi-0.dtd"
   xmlns:inkscape="http://www.inkscape.org/namespaces/inkscape"
   id="svg3502"
   version="1.1"
   viewBox="0 0 429.81 429.81"
   height="429.81pt"
   width="429.81pt"
   inkscape:version="0.91 r13725"
   sodipodi:docname="colourwheel1.svg">
  <sodipodi:namedview
     pagecolor="#ffffff"
     bordercolor="#666666"
     borderopacity="1"
     objecttolerance="10"
     gridtolerance="10"
     guidetolerance="10"
     inkscape:pageopacity="0"
     inkscape:pageshadow="2"
     inkscape:window-width="1366"
     inkscape:window-height="703"
     id="namedview3461"
     showgrid="false"
     inkscape:zoom="0.95484052"
     inkscape:cx="83.783625"
     inkscape:cy="268.63125"
     inkscape:window-x="0"
     inkscape:window-y="0"
     inkscape:window-maximized="1"
     inkscape:current-layer="svg3502" />
  <metadata
     id="metadata3743">
    <rdf:RDF>
      <cc:Work
         rdf:about="">
        <dc:format>image/svg+xml</dc:format>
        <dc:type
           rdf:resource="http://purl.org/dc/dcmitype/StillImage" />
        <dc:title />
      </cc:Work>
    </rdf:RDF>
  </metadata>
  <defs
     id="defs3504">
    <clipPath
       id="clip1">
      <path
         id="path3507"
         d="M 107 354 L 215 354 L 215 429.808594 L 107 429.808594 Z M 107 354 " />
    </clipPath>
    <clipPath
       id="clip2">
      <path
         id="path3510"
         d="M 107 353 L 216 353 L 216 429.808594 L 107 429.808594 Z M 107 353 " />
    </clipPath>
    <clipPath
       id="clip3">
      <path
         id="path3513"
         d="M 354 107 L 429.808594 107 L 429.808594 215 L 354 215 Z M 354 107 " />
    </clipPath>
    <clipPath
       id="clip4">
      <path
         id="path3516"
         d="M 353 107 L 429.808594 107 L 429.808594 216 L 353 216 Z M 353 107 " />
    </clipPath>
    <clipPath
       id="clip5">
      <path
         id="path3519"
         d="M 354 214 L 429.808594 214 L 429.808594 323 L 354 323 Z M 354 214 " />
    </clipPath>
    <clipPath
       id="clip6">
      <path
         id="path3522"
         d="M 353 214 L 429.808594 214 L 429.808594 323 L 353 323 Z M 353 214 " />
    </clipPath>
    <clipPath
       id="clip7">
      <path
         id="path3525"
         d="M 214 354 L 323 354 L 323 429.808594 L 214 429.808594 Z M 214 354 " />
    </clipPath>
    <clipPath
       id="clip8">
      <path
         id="path3528"
         d="M 214 353 L 323 353 L 323 429.808594 L 214 429.808594 Z M 214 353 " />
    </clipPath>
  </defs>
  <g
     id="surface85681"
     transform="matrix(-0.70710678,-0.70710678,-0.70710678,0.70710678,518.82694,214.90394)">
    <g
       id="g3531"
       clip-path="url(#clip1)"
       style="clip-rule:nonzero">
      <path
         id="path3533"
         d="m 134.35937,354.41797 -26.67187,46.1914 c 31.53906,18.25 68.15625,28.69922 107.21484,28.69922 l 0,-53.33203 c -29.33984,0 -56.84765,-7.85156 -80.54297,-21.55859"
         style="fill:#176ebf;fill-opacity:1;fill-rule:nonzero;stroke:none"
         inkscape:connector-curvature="0" />
    </g>
    <g
       id="g3535"
       clip-path="url(#clip2)"
       style="clip-rule:nonzero">
      <path
         id="path3537"
         d="m 108.37109,400.42578 c 32.125,18.48828 68.76953,28.29688 106.03125,28.38281 l 0,-52.33203 c -28.0625,-0.0859 -55.65625,-7.47265 -79.85937,-21.375 z m 107.03125,29.38281 -0.5,0 c -37.77734,0 -74.9375,-9.94531 -107.46484,-28.76562 l -0.43359,-0.25 27.17187,-47.0586 0.43359,0.25 c 24.30079,14.0625 52.06641,21.49219 80.29297,21.49219 l 0.5,0 0,54.33203"
         style="fill:#ffffff;fill-opacity:1;fill-rule:nonzero;stroke:none"
         inkscape:connector-curvature="0" />
    </g>
    <path
       id="path3539"
       d="m 214.90234,53.835938 0,-53.335938 c -39.05859,0 -75.67578,10.449219 -107.21484,28.699219 l 26.66797,46.195312 C 158.05078,61.683594 185.5625,53.835938 214.90234,53.835938"
       style="fill:#de1c23;fill-opacity:1;fill-rule:nonzero;stroke:none"
       inkscape:connector-curvature="0" />
    <path
       id="path3541"
       d="m 108.37109,29.382812 26.16797,45.328126 c 24.20703,-13.902344 51.80078,-21.289063 79.86328,-21.375 L 214.40234,1 c -37.26172,0.089844 -73.90625,9.898438 -106.03125,28.382812 z m 25.80469,46.695313 -27.17187,-47.0625 0.43359,-0.25 C 139.96094,9.949219 177.125,0 214.90234,0 l 0.5,0 0,54.335938 -0.5,0 c -28.22656,0 -55.99218,7.429687 -80.29297,21.492187 l -0.43359,0.25"
       style="fill:#ffffff;fill-opacity:1;fill-rule:nonzero;stroke:none"
       inkscape:connector-curvature="0" />
    <path
       id="path3543"
       d="M 295.44922,75.394531 322.12109,29.199219 C 290.58203,10.949219 253.96484,0.5 214.90234,0.5 l 0,53.335938 c 29.34375,0 56.85547,7.847656 80.54688,21.558593"
       style="fill:#f05719;fill-opacity:1;fill-rule:nonzero;stroke:none"
       inkscape:connector-curvature="0" />
    <path
       id="path3545"
       d="m 215.40234,53.335938 c 28.06641,0.08594 55.66016,7.472656 79.86719,21.375 L 321.4375,29.382812 C 289.3125,10.898438 252.66797,1.089844 215.40234,1 Z m 80.23047,22.742187 -0.43359,-0.25 C 270.89844,61.765625 243.13281,54.335938 214.90234,54.335938 l -0.5,0 0,-54.335938 0.5,0 c 37.78516,0 74.94532,9.949219 107.46875,28.769531 l 0.4336,0.25 -27.17188,47.058594"
       style="fill:#ffffff;fill-opacity:1;fill-rule:nonzero;stroke:none"
       inkscape:connector-curvature="0" />
    <g
       id="g3547"
       clip-path="url(#clip3)"
       style="clip-rule:nonzero">
      <path
         id="path3549"
         d="m 375.97656,214.90625 53.33203,0 c 0,-39.05859 -10.44922,-75.67578 -28.69922,-107.21875 l -46.19531,26.67187 c 13.71094,23.69532 21.5625,51.20313 21.5625,80.54688"
         style="fill:#9cd41e;fill-opacity:1;fill-rule:nonzero;stroke:none"
         inkscape:connector-curvature="0" />
    </g>
    <g
       id="g3551"
       clip-path="url(#clip4)"
       style="clip-rule:nonzero">
      <path
         id="path3553"
         d="m 376.47656,214.40625 52.33203,0 c -0.0859,-37.26172 -9.89453,-73.91016 -28.38281,-106.03516 l -45.32812,26.17188 c 13.90625,24.20703 21.29296,51.80078 21.3789,79.86328 z m 52.83203,1 -53.83203,0 0,-0.5 c 0,-28.22656 -7.43359,-55.99609 -21.49219,-80.29688 l -0.2539,-0.43359 47.0625,-27.16797 0.25,0.42969 c 18.8164,32.52734 28.76562,69.6875 28.76562,107.46875 l 0,0.5 -0.5,0"
         style="fill:#ffffff;fill-opacity:1;fill-rule:nonzero;stroke:none"
         inkscape:connector-curvature="0" />
    </g>
    <g
       id="g3555"
       clip-path="url(#clip5)"
       style="clip-rule:nonzero">
      <path
         id="path3557"
         d="m 354.41406,295.45312 46.19531,26.66797 c 18.25,-31.53906 28.69922,-68.15625 28.69922,-107.21484 l -53.33203,0 c 0,29.34375 -7.85156,56.85156 -21.5625,80.54687"
         style="fill:#38b53d;fill-opacity:1;fill-rule:nonzero;stroke:none"
         inkscape:connector-curvature="0" />
    </g>
    <g
       id="g3559"
       clip-path="url(#clip6)"
       style="clip-rule:nonzero">
      <path
         id="path3561"
         d="m 355.09766,295.26953 45.32812,26.17188 c 18.48438,-32.12891 28.29688,-68.76954 28.38281,-106.03516 l -52.33203,0 c -0.0859,28.06641 -7.47265,55.65625 -21.3789,79.86328 z m 45.69531,27.53516 -47.0625,-27.16797 0.25,-0.4336 c 14.0625,-24.30468 21.49609,-52.0664 21.49609,-80.29687 l 0,-0.5 54.33203,0 0,0.5 c 0,37.78125 -9.94922,74.94141 -28.76562,107.46484 l -0.25,0.4336"
         style="fill:#ffffff;fill-opacity:1;fill-rule:nonzero;stroke:none"
         inkscape:connector-curvature="0" />
    </g>
    <path
       id="path3563"
       d="M 134.35547,75.394531 107.6875,29.199219 C 75.152344,48.023438 48.023438,75.152344 29.199219,107.6875 l 46.195312,26.67187 C 89.535156,109.91797 109.91406,89.535156 134.35547,75.394531"
       style="fill:#eb027a;fill-opacity:1;fill-rule:nonzero;stroke:none"
       inkscape:connector-curvature="0" />
    <path
       id="path3565"
       d="m 29.882812,107.50781 45.328126,26.16797 C 89.300781,109.5 109.49609,89.300781 133.67578,75.210938 L 107.50391,29.882812 C 75.390625,48.566406 48.566406,75.390625 29.882812,107.50781 Z m 45.695313,27.53516 -47.0625,-27.17188 0.25,-0.43359 C 47.628906,74.835938 74.835938,47.632812 107.4375,28.765625 l 0.43359,-0.25 27.16797,47.0625 -0.42969,0.25 C 110.24609,89.921875 89.921875,110.25 75.828125,134.60937 l -0.25,0.4336"
       style="fill:#ffffff;fill-opacity:1;fill-rule:nonzero;stroke:none"
       inkscape:connector-curvature="0" />
    <path
       id="path3567"
       d="M 354.41406,134.35937 400.60937,107.6875 C 381.78516,75.152344 354.65625,48.027344 322.12109,29.199219 l -26.67187,46.195312 c 24.44531,14.140625 44.82422,34.523439 58.96484,58.964839"
       style="fill:#fde600;fill-opacity:1;fill-rule:nonzero;stroke:none"
       inkscape:connector-curvature="0" />
    <path
       id="path3569"
       d="m 296.13281,75.214844 c 24.17969,14.085937 44.375,34.285156 58.46485,58.460936 l 45.32812,-26.16797 C 381.24219,75.390625 354.41797,48.566406 322.30469,29.886719 Z m 58.10156,59.828126 -0.25,-0.4336 C 339.88672,110.25 319.5625,89.921875 295.19922,75.828125 l -0.42969,-0.25 27.16797,-47.0625 0.43359,0.253906 c 32.60547,18.863281 59.8086,46.066407 78.67188,78.667969 l 0.25,0.43359 -47.0586,27.17188"
       style="fill:#ffffff;fill-opacity:1;fill-rule:nonzero;stroke:none"
       inkscape:connector-curvature="0" />
    <g
       id="g3571"
       clip-path="url(#clip7)"
       style="clip-rule:nonzero">
      <path
         id="path3573"
         d="m 214.90234,375.97656 0,53.33203 c 39.0625,0 75.67969,-10.44922 107.21875,-28.69922 l -26.67187,-46.1914 c -23.69141,13.70703 -51.20313,21.55859 -80.54688,21.55859"
         style="fill:#47b0e8;fill-opacity:1;fill-rule:nonzero;stroke:none"
         inkscape:connector-curvature="0" />
    </g>
    <g
       id="g3575"
       clip-path="url(#clip8)"
       style="clip-rule:nonzero">
      <path
         id="path3577"
         d="m 215.40234,376.47656 0,52.33203 c 37.26563,-0.0859 73.91016,-9.89453 106.03516,-28.3789 l -26.17188,-45.32813 c -24.20312,13.90235 -51.79687,21.28906 -79.86328,21.375 z m -0.5,53.33203 -0.5,0 0,-54.33203 0.5,0 c 28.23047,0 55.9961,-7.42969 80.29688,-21.49219 l 0.43359,-0.25 27.17188,47.0586 -0.4336,0.25 c -32.52343,18.82031 -69.6875,28.76562 -107.46875,28.76562"
         style="fill:#ffffff;fill-opacity:1;fill-rule:nonzero;stroke:none"
         inkscape:connector-curvature="0" />
    </g>
    <path
       id="path3579"
       d="m 400.60937,322.12109 -46.19531,-26.66797 c -14.14062,24.44141 -34.51953,44.82032 -58.96484,58.96485 l 26.67187,46.1914 c 32.53516,-18.82421 59.66407,-45.95312 78.48828,-78.48828"
       style="fill:#2bae9e;fill-opacity:1;fill-rule:nonzero;stroke:none"
       inkscape:connector-curvature="0" />
    <path
       id="path3581"
       d="m 296.13281,354.59766 26.17188,45.32812 c 32.11328,-18.67969 58.9375,-45.50391 77.62109,-77.62109 l -45.32812,-26.16797 c -14.08985,24.17578 -34.28907,44.375 -58.46485,58.46094 z m 25.80469,46.69531 -27.16797,-47.0586 0.42969,-0.25 c 24.36328,-14.09375 44.6875,-34.42187 58.78125,-58.78125 l 0.25,-0.43359 47.0625,27.17188 -0.25,0.42968 c -18.86328,32.60547 -46.07031,59.8086 -78.67188,78.67188 l -0.43359,0.25"
       style="fill:#ffffff;fill-opacity:1;fill-rule:nonzero;stroke:none"
       inkscape:connector-curvature="0" />
    <path
       id="path3583"
       d="m 53.832031,214.90625 c 0,-29.34375 7.851563,-56.85156 21.5625,-80.54688 L 29.199219,107.6875 C 10.949219,139.23047 0.5,175.84766 0.5,214.90625 l 53.332031,0"
       style="fill:#a31466;fill-opacity:1;fill-rule:nonzero;stroke:none"
       inkscape:connector-curvature="0" />
    <path
       id="path3585"
       d="m 1,214.40625 52.335938,0 c 0.08594,-28.0625 7.46875,-55.65625 21.375,-79.86328 L 29.382812,108.37109 C 10.894531,140.49609 1.085938,177.14062 1,214.40625 Z m 52.832031,1 -53.832031,0 0,-0.5 C 0,177.125 9.949219,139.96484 28.765625,107.4375 l 0.25,-0.42969 47.0625,27.16797 -0.25,0.43359 c -14.0625,24.30079 -21.496094,52.06641 -21.496094,80.29688 l 0,0.5 -0.5,0"
       style="fill:#ffffff;fill-opacity:1;fill-rule:nonzero;stroke:none"
       inkscape:connector-curvature="0" />
    <path
       id="path3587"
       d="m 75.394531,295.45312 -46.195312,26.66797 c 18.824219,32.53516 45.953125,59.66407 78.488281,78.48828 l 26.67187,-46.1914 C 109.91406,340.27344 89.535156,319.89453 75.394531,295.45312"
       style="fill:#4c389c;fill-opacity:1;fill-rule:nonzero;stroke:none"
       inkscape:connector-curvature="0" />
    <path
       id="path3589"
       d="m 29.882812,322.30469 c 18.683594,32.11718 45.507813,58.9414 77.621098,77.62109 l 26.17187,-45.32812 C 109.5,340.51172 89.300781,320.3125 75.210938,296.13672 Z m 77.988278,78.98828 -0.43359,-0.25 C 74.835938,382.17969 47.632812,354.97656 28.765625,322.37109 l -0.25,-0.42968 47.0625,-27.17188 0.25,0.43359 c 14.09375,24.35938 34.417965,44.6875 58.781245,58.78125 l 0.42969,0.25 -27.16797,47.0586"
       style="fill:#ffffff;fill-opacity:1;fill-rule:nonzero;stroke:none"
       inkscape:connector-curvature="0" />
    <path
       id="path3591"
       d="m 53.832031,214.90625 -53.332031,0 c 0,39.05859 10.449219,75.67578 28.699219,107.21484 L 75.394531,295.45312 C 61.683594,271.75781 53.832031,244.25 53.832031,214.90625"
       style="fill:#753099;fill-opacity:1;fill-rule:nonzero;stroke:none"
       inkscape:connector-curvature="0" />
    <path
       id="path3593"
       d="m 1,215.40625 c 0.085938,37.26562 9.894531,73.90625 28.382812,106.03516 L 74.710938,295.26953 C 60.808594,271.0625 53.421875,243.46875 53.335938,215.40625 Z m 28.015625,107.39844 -0.25,-0.4336 C 9.949219,289.84766 0,252.6875 0,214.90625 l 0,-0.5 54.332031,0 0,0.5 c 0,28.22656 7.433594,55.99219 21.496094,80.29687 l 0.25,0.4336 -47.0625,27.16797"
       style="fill:#ffffff;fill-opacity:1;fill-rule:nonzero;stroke:none"
       inkscape:connector-curvature="0" />
    <path
       id="path3595"
       d="m 161.02734,308.22266 -26.66797,46.19531 c 23.69532,13.70703 51.20313,21.55859 80.54297,21.55859 l 0,-53.33203 c -19.625,0 -38.02343,-5.25391 -53.875,-14.42187"
       style="fill:#4287cf;fill-opacity:1;fill-rule:nonzero;stroke:none"
       inkscape:connector-curvature="0" />
    <path
       id="path3597"
       d="m 135.04297,354.23437 c 24.05469,13.81641 51.47265,21.15625 79.35937,21.24219 l 0,-52.33594 c -18.6875,-0.0859 -37.05468,-5 -53.1914,-14.23828 z m 80.35937,22.24219 -0.5,0 c -28.40234,0 -56.33984,-7.48047 -80.79297,-21.625 l -0.43359,-0.25 27.17188,-47.0625 0.42968,0.25 c 16.23047,9.39063 34.77344,14.35547 53.625,14.35547 l 0.5,0 0,54.33203"
       style="fill:#ffffff;fill-opacity:1;fill-rule:nonzero;stroke:none"
       inkscape:connector-curvature="0" />
    <path
       id="path3599"
       d="M 268.78125,121.58984 295.44922,75.394531 C 271.75781,61.683594 244.24609,53.835938 214.90234,53.835938 l 0,53.332032 c 19.62891,0 38.03125,5.25 53.87891,14.42187"
       style="fill:#f5873f;fill-opacity:1;fill-rule:nonzero;stroke:none"
       inkscape:connector-curvature="0" />
    <path
       id="path3601"
       d="m 215.40234,106.66797 c 18.69141,0.0859 37.0625,5.00391 53.19532,14.23828 L 294.76953,75.578125 C 270.71484,61.761719 243.29297,54.421875 215.40234,54.335938 Z m 53.5625,15.60547 -0.43359,-0.25 c -16.23047,-9.39063 -34.77344,-14.35547 -53.62891,-14.35547 l -0.5,0 0,-54.332032 0.5,0 c 28.40625,0 56.34375,7.476562 80.79688,21.625 l 0.43359,0.25 -27.16797,47.062502"
       style="fill:#ffffff;fill-opacity:1;fill-rule:nonzero;stroke:none"
       inkscape:connector-curvature="0" />
    <path
       id="path3603"
       d="m 214.90234,107.16797 0,-53.332032 c -29.33984,0 -56.85156,7.847656 -80.54687,21.558593 l 26.67187,46.195309 c 15.84766,-9.17187 34.25,-14.42187 53.875,-14.42187"
       style="fill:#e6473a;fill-opacity:1;fill-rule:nonzero;stroke:none"
       inkscape:connector-curvature="0" />
    <path
       id="path3605"
       d="m 135.03906,75.578125 26.17188,45.328125 c 16.13281,-9.23437 34.5039,-14.15234 53.1914,-14.23828 l 0,-52.332032 c -27.88672,0.08594 -55.30859,7.425781 -79.36328,21.242187 z m 25.80469,46.695315 -27.16797,-47.062502 0.42969,-0.25 C 158.5625,60.8125 186.5,53.335938 214.90234,53.335938 l 0.5,0 0,54.332032 -0.5,0 c -18.85156,0 -37.39453,4.96484 -53.625,14.35547 l -0.43359,0.25"
       style="fill:#ffffff;fill-opacity:1;fill-rule:nonzero;stroke:none"
       inkscape:connector-curvature="0" />
    <path
       id="path3607"
       d="M 161.02734,121.58984 134.35547,75.394531 C 109.91406,89.535156 89.535156,109.91797 75.394531,134.35937 l 46.191409,26.66797 c 9.46093,-16.34765 23.09375,-29.98047 39.4414,-39.4375"
       style="fill:#f04599;fill-opacity:1;fill-rule:nonzero;stroke:none"
       inkscape:connector-curvature="0" />
    <path
       id="path3609"
       d="m 76.078125,134.17578 45.328125,26.17188 c 9.40625,-16.08594 22.85547,-29.53516 38.94141,-38.94141 L 134.17578,76.078125 c -24.02734,14 -44.097655,34.074215 -58.097655,58.097655 z m 45.691405,27.53516 -47.058592,-27.16797 0.25,-0.4336 C 89.144531,109.59766 109.59375,89.144531 134.10547,74.960938 l 0.43359,-0.25 27.17188,47.062502 -0.4336,0.25 c -16.26953,9.41015 -29.84375,22.98828 -39.25781,39.25781 l -0.25,0.42969"
       style="fill:#ffffff;fill-opacity:1;fill-rule:nonzero;stroke:none"
       inkscape:connector-curvature="0" />
    <path
       id="path3611"
       d="m 308.22266,161.03125 46.1914,-26.67188 C 340.27344,109.91797 319.89453,89.535156 295.44922,75.394531 l -26.66797,46.195309 c 16.34766,9.46094 29.98047,23.08985 39.44141,39.44141"
       style="fill:#fdee42;fill-opacity:1;fill-rule:nonzero;stroke:none"
       inkscape:connector-curvature="0" />
    <path
       id="path3613"
       d="m 269.46484,121.40625 c 16.08594,9.40625 29.53125,22.85547 38.9375,38.94141 l 45.32813,-26.17188 c -14,-24.02344 -34.07422,-44.097655 -58.09766,-58.097655 z m 38.57422,40.30469 -0.25,-0.42969 C 298.375,145.01172 284.80078,131.4375 268.53125,122.02344 l -0.43359,-0.25 27.17187,-47.062502 0.42969,0.25 c 24.51562,14.183593 44.96484,34.636722 59.14844,59.148432 l 0.2539,0.4336 -47.0625,27.16797"
       style="fill:#ffffff;fill-opacity:1;fill-rule:nonzero;stroke:none"
       inkscape:connector-curvature="0" />
    <path
       id="path3615"
       d="m 322.64062,214.90625 53.33594,0 c 0,-29.34375 -7.85156,-56.85156 -21.5625,-80.54688 l -46.1914,26.67188 c 9.16796,15.84766 14.41796,34.24609 14.41796,53.875"
       style="fill:#b8de47;fill-opacity:1;fill-rule:nonzero;stroke:none"
       inkscape:connector-curvature="0" />
    <path
       id="path3617"
       d="m 323.14062,214.40625 52.33594,0 c -0.0898,-27.88672 -7.42578,-55.30859 -21.24609,-79.36328 l -45.32813,26.17187 c 9.23438,16.13282 14.15235,34.50391 14.23828,53.19141 z m 52.83594,1 -53.83594,0 0,-0.5 c 0,-18.85156 -4.96093,-37.39453 -14.35156,-53.625 l -0.2539,-0.43359 47.0625,-27.17188 0.25,0.43359 c 14.14843,24.45313 21.6289,52.39063 21.6289,80.79688 l 0,0.5 -0.5,0"
       style="fill:#ffffff;fill-opacity:1;fill-rule:nonzero;stroke:none"
       inkscape:connector-curvature="0" />
    <path
       id="path3619"
       d="m 107.16797,214.90625 c 0,-19.62891 5.25,-38.02734 14.41797,-53.87891 L 75.394531,134.35937 c -13.710937,23.69532 -21.5625,51.20313 -21.5625,80.54688 l 53.335939,0"
       style="fill:#cc3d8f;fill-opacity:1;fill-rule:nonzero;stroke:none"
       inkscape:connector-curvature="0" />
    <path
       id="path3621"
       d="m 54.335938,214.40625 52.332032,0 c 0.0859,-18.6875 5.00391,-37.05859 14.23828,-53.19141 L 75.578125,135.04297 c -13.816406,24.05469 -21.15625,51.47265 -21.242187,79.36328 z m 52.832032,1 -53.835939,0 0,-0.5 c 0,-28.40625 7.480469,-56.34375 21.628907,-80.79688 l 0.25,-0.43359 47.058592,27.17188 -0.25,0.43359 c -9.39062,16.22656 -14.35156,34.77344 -14.35156,53.625 l 0,0.5 -0.5,0"
       style="fill:#ffffff;fill-opacity:1;fill-rule:nonzero;stroke:none"
       inkscape:connector-curvature="0" />
    <path
       id="path3623"
       d="m 107.16797,214.90625 -53.335939,0 c 0,29.34375 7.851563,56.85156 21.5625,80.54687 l 46.195309,-26.67187 c -9.17187,-15.84766 -14.42187,-34.25 -14.42187,-53.875"
       style="fill:#9459b3;fill-opacity:1;fill-rule:nonzero;stroke:none"
       inkscape:connector-curvature="0" />
    <path
       id="path3625"
       d="m 54.335938,215.40625 c 0.08594,27.88672 7.425781,55.30859 21.242187,79.36328 l 45.328125,-26.17187 c -9.23437,-16.13282 -14.15234,-34.50391 -14.23828,-53.19141 z m 20.875,80.73047 -0.25,-0.4336 C 60.8125,271.25 53.332031,243.30859 53.332031,214.90625 l 0,-0.5 54.335939,0 0,0.5 c 0,18.85156 4.96094,37.39453 14.35156,53.625 l 0.25391,0.43359 -47.062502,27.17188"
       style="fill:#ffffff;fill-opacity:1;fill-rule:nonzero;stroke:none"
       inkscape:connector-curvature="0" />
    <path
       id="path3627"
       d="m 214.90234,322.64453 0,53.33203 c 29.34375,0 56.85547,-7.85156 80.54688,-21.55859 l -26.66797,-46.19531 c -15.84766,9.16796 -34.25,14.42187 -53.87891,14.42187"
       style="fill:#73c5ee;fill-opacity:1;fill-rule:nonzero;stroke:none"
       inkscape:connector-curvature="0" />
    <path
       id="path3629"
       d="m 215.40234,323.14062 0,52.33594 c 27.89063,-0.0859 55.3125,-7.42578 79.36328,-21.24219 l -26.16796,-45.33203 c -16.13282,9.23828 -34.50391,14.15235 -53.19532,14.23828 z m -0.5,53.33594 -0.5,0 0,-54.33203 0.5,0 c 18.85547,0 37.39844,-4.96484 53.62891,-14.35547 l 0.43359,-0.25 27.16797,47.0625 -0.43359,0.25 c -24.45313,14.14453 -52.39063,21.625 -80.79688,21.625"
       style="fill:#ffffff;fill-opacity:1;fill-rule:nonzero;stroke:none"
       inkscape:connector-curvature="0" />
    <path
       id="path3631"
       d="m 322.64062,214.90625 c 0,19.625 -5.25,38.02734 -14.42187,53.875 l 46.19531,26.67187 c 13.71094,-23.69531 21.5625,-51.20312 21.5625,-80.54687 l -53.33594,0"
       style="fill:#6bc759;fill-opacity:1;fill-rule:nonzero;stroke:none"
       inkscape:connector-curvature="0" />
    <path
       id="path3633"
       d="m 308.90234,268.59766 45.32813,26.17187 c 13.82031,-24.05469 21.15625,-51.47266 21.24609,-79.36328 l -52.33594,0 c -0.0859,18.6875 -5.0039,37.05859 -14.23828,53.19141 z m 45.69532,27.53906 -47.0625,-27.17188 0.25,-0.43359 c 9.39453,-16.22656 14.35546,-34.76953 14.35546,-53.625 l 0,-0.5 54.33594,0 0,0.5 c 0,28.40625 -7.48047,56.34375 -21.6289,80.79687 l -0.25,0.4336"
       style="fill:#ffffff;fill-opacity:1;fill-rule:nonzero;stroke:none"
       inkscape:connector-curvature="0" />
    <path
       id="path3635"
       d="m 268.78125,308.22266 26.66797,46.19531 c 24.44531,-14.14453 44.82422,-34.52344 58.96484,-58.96485 l -46.19531,-26.67187 c -9.45703,16.35156 -23.08984,29.98047 -39.4375,39.44141"
       style="fill:#63c5b3;fill-opacity:1;fill-rule:nonzero;stroke:none"
       inkscape:connector-curvature="0" />
    <path
       id="path3637"
       d="m 269.46484,308.40234 26.16797,45.32813 c 24.02344,-14 44.09766,-34.07031 58.09766,-58.09375 l -45.32813,-26.17188 c -9.40625,16.08594 -22.85547,29.53125 -38.9375,38.9375 z m 25.80469,46.69922 -27.17187,-47.0625 0.43359,-0.25 c 16.26953,-9.41406 29.84375,-22.98828 39.25391,-39.25781 l 0.25,-0.42969 47.0625,27.16797 -0.25,0.43359 c -14.1836,24.51172 -34.63672,44.96485 -59.14844,59.14844 l -0.42969,0.25"
       style="fill:#ffffff;fill-opacity:1;fill-rule:nonzero;stroke:none"
       inkscape:connector-curvature="0" />
    <path
       id="path3639"
       d="m 121.58984,268.78125 -46.195309,26.67187 c 14.140625,24.44141 34.519529,44.82032 58.964839,58.96485 l 26.66797,-46.19531 c -16.34765,-9.46094 -29.98047,-23.08985 -39.4375,-39.44141"
       style="fill:#735cb3;fill-opacity:1;fill-rule:nonzero;stroke:none"
       inkscape:connector-curvature="0" />
    <path
       id="path3641"
       d="m 76.078125,295.63672 c 14,24.02344 34.074215,44.09375 58.097655,58.09375 l 26.17188,-45.32813 c -16.08594,-9.40625 -29.53516,-22.85156 -38.94141,-38.9375 z m 58.460935,59.46484 -0.42969,-0.25 C 109.59766,340.66797 89.144531,320.21484 74.960938,295.70312 l -0.25,-0.43359 47.058592,-27.16797 0.25,0.42969 c 9.41406,16.26953 22.99219,29.84375 39.25781,39.25781 l 0.4336,0.25 -27.17188,47.0625"
       style="fill:#ffffff;fill-opacity:1;fill-rule:nonzero;stroke:none"
       inkscape:connector-curvature="0" />
    <path
       id="path3643"
       d="m 214.90234,160.5 0,-53.33203 c -19.625,0 -38.02734,5.25 -53.875,14.42187 l 26.67578,46.20703 C 195.70703,163.16406 204.99219,160.5 214.90234,160.5"
       style="fill:#f3826b;fill-opacity:1;fill-rule:nonzero;stroke:none"
       inkscape:connector-curvature="0" />
    <path
       id="path3645"
       d="m 161.71094,121.77344 26.17968,45.33984 c 8.07422,-4.57422 17.21875,-7.02344 26.51172,-7.10937 l 0,-52.33594 c -18.51172,0.0859 -36.71093,4.95703 -52.6914,14.10547 z m 25.8125,46.70703 -27.17969,-47.07422 0.43359,-0.25 c 16.38282,-9.47656 35.09766,-14.48828 54.125,-14.48828 l 0.5,0 0,54.33203 -0.5,0 c -9.45703,0 -18.77343,2.5 -26.94531,7.22656 l -0.43359,0.25391"
       style="fill:#ffffff;fill-opacity:1;fill-rule:nonzero;stroke:none"
       inkscape:connector-curvature="0" />
    <path
       id="path3647"
       d="m 160.5,214.90625 -53.33203,0 c 0,19.625 5.25,38.02734 14.42187,53.875 l 46.20703,-26.67578 C 163.16406,234.10156 160.5,224.81641 160.5,214.90625"
       style="fill:#b88ccc;fill-opacity:1;fill-rule:nonzero;stroke:none"
       inkscape:connector-curvature="0" />
    <path
       id="path3649"
       d="m 107.66797,215.40625 c 0.0859,18.51172 4.95703,36.71094 14.10547,52.69141 l 45.33984,-26.17579 c -4.57422,-8.07421 -7.02734,-17.22265 -7.10937,-26.51562 z m 13.73828,54.05859 -0.25,-0.43359 c -9.48047,-16.37891 -14.48828,-35.09766 -14.48828,-54.125 l 0,-0.5 54.33203,0 0,0.5 c 0,9.45703 2.5,18.77734 7.22656,26.94922 l 0.25391,0.42969 -47.07422,27.17968"
       style="fill:#ffffff;fill-opacity:1;fill-rule:nonzero;stroke:none"
       inkscape:connector-curvature="0" />
    <path
       id="path3651"
       d="m 160.5,214.90625 c 0,-9.91406 2.66406,-19.19531 7.29297,-27.19922 l -46.20703,-26.67969 c -9.16797,15.85157 -14.41797,34.25 -14.41797,53.87891 l 53.33203,0"
       style="fill:#de7db5;fill-opacity:1;fill-rule:nonzero;stroke:none"
       inkscape:connector-curvature="0" />
    <path
       id="path3653"
       d="m 107.66797,214.40625 52.33594,0 c 0.082,-9.29688 2.53515,-18.44141 7.10937,-26.51563 l -45.34375,-26.17578 c -9.14453,15.98047 -14.01562,34.17969 -14.10156,52.69141 z m 52.83203,1 -53.83203,0 0,-0.5 c 0,-19.02734 5.00781,-37.74609 14.48828,-54.12891 l 0.25,-0.42968 47.07031,27.17578 -0.25,0.43359 C 163.5,196.12891 161,205.44531 161,214.90625 l 0,0.5 -0.5,0"
       style="fill:#ffffff;fill-opacity:1;fill-rule:nonzero;stroke:none"
       inkscape:connector-curvature="0" />
    <path
       id="path3655"
       d="m 262.01562,187.70703 46.20704,-26.67578 c -9.46094,-16.35156 -23.09375,-29.98047 -39.44141,-39.44141 l -26.67578,46.20703 c 8.2539,4.77735 15.13281,11.65625 19.91015,19.91016"
       style="fill:#fff885;fill-opacity:1;fill-rule:nonzero;stroke:none"
       inkscape:connector-curvature="0" />
    <path
       id="path3657"
       d="m 242.78516,167.61328 c 7.99218,4.72266 14.6875,11.41797 19.41015,19.41016 l 45.33985,-26.17578 c -9.31641,-15.9336 -22.63672,-29.25391 -38.57032,-38.57422 z m 19.04687,20.77734 -0.25,-0.43359 c -4.73047,-8.17578 -11.55469,-14.99609 -19.72656,-19.72656 l -0.4336,-0.25 27.17579,-47.07422 0.43359,0.25 c 16.42187,9.5 30.12109,23.20312 39.62109,39.62109 l 0.25,0.4336 -47.07031,27.17968"
       style="fill:#ffffff;fill-opacity:1;fill-rule:nonzero;stroke:none"
       inkscape:connector-curvature="0" />
    <path
       id="path3659"
       d="m 242.10547,167.79687 26.67578,-46.20703 c -15.84766,-9.17187 -34.25,-14.42187 -53.87891,-14.42187 l 0,53.33203 c 9.91407,0 19.19922,2.66406 27.20313,7.29687"
       style="fill:#fab87a;fill-opacity:1;fill-rule:nonzero;stroke:none"
       inkscape:connector-curvature="0" />
    <path
       id="path3661"
       d="m 215.40234,160.00391 c 9.29688,0.0859 18.44532,2.53515 26.51953,7.10937 l 26.17579,-45.33984 C 252.11719,112.625 233.91797,107.75391 215.40234,107.66797 Z m 26.88282,8.47656 -0.42969,-0.25 C 233.68359,163.5 224.36328,161 214.90234,161 l -0.5,0 0,-54.33203 0.5,0 c 19.03125,0 37.7461,5.01172 54.12891,14.48828 l 0.43359,0.25 -27.17968,47.07422"
       style="fill:#ffffff;fill-opacity:1;fill-rule:nonzero;stroke:none"
       inkscape:connector-curvature="0" />
    <path
       id="path3663"
       d="m 187.70312,167.79687 -26.67578,-46.20703 c -16.34765,9.45703 -29.98047,23.08985 -39.4414,39.4375 l 46.20703,26.67969 c 4.77734,-8.25391 11.65625,-15.13672 19.91015,-19.91016"
       style="fill:#f585bd;fill-opacity:1;fill-rule:nonzero;stroke:none"
       inkscape:connector-curvature="0" />
    <path
       id="path3665"
       d="m 122.27344,160.84766 45.33984,26.17578 c 4.72266,-7.99219 11.41797,-14.6875 19.41016,-19.41016 l -26.17578,-45.33984 c -15.9375,9.32031 -29.25782,22.64062 -38.57422,38.57422 z m 45.70312,27.54296 -47.07422,-27.17968 0.25391,-0.4336 c 9.5,-16.41797 23.19922,-30.12109 39.62109,-39.62109 l 0.4336,-0.25 27.17578,47.07031 -0.42969,0.25 c -8.17578,4.73438 -15,11.55469 -19.73047,19.73047 l -0.25,0.43359"
       style="fill:#ffffff;fill-opacity:1;fill-rule:nonzero;stroke:none"
       inkscape:connector-curvature="0" />
    <path
       id="path3667"
       d="m 262.01562,242.10547 46.20313,26.67578 c 9.17187,-15.84766 14.42187,-34.25 14.42187,-53.875 l -53.33203,0 c 0,9.91016 -2.66406,19.19531 -7.29297,27.19922"
       style="fill:#a1dc8a;fill-opacity:1;fill-rule:nonzero;stroke:none"
       inkscape:connector-curvature="0" />
    <path
       id="path3669"
       d="m 262.69531,241.92187 45.33985,26.17579 c 9.14843,-15.98047 14.01953,-34.17969 14.10546,-52.69141 l -52.33203,0 c -0.0859,9.29297 -2.53906,18.44141 -7.11328,26.51562 z m 45.70703,27.54297 -47.07422,-27.17968 0.25391,-0.42969 c 4.72656,-8.17188 7.22656,-17.49219 7.22656,-26.94922 l 0,-0.5 54.33203,0 0,0.5 c 0,19.03125 -5.00781,37.74609 -14.48828,54.125 l -0.25,0.43359"
       style="fill:#ffffff;fill-opacity:1;fill-rule:nonzero;stroke:none"
       inkscape:connector-curvature="0" />
    <path
       id="path3671"
       d="m 242.10156,262.01562 26.67969,46.20704 c 16.34766,-9.46094 29.98047,-23.08985 39.4375,-39.44141 l -46.20313,-26.67578 c -4.77734,8.2539 -11.65625,15.13281 -19.91406,19.91015"
       style="fill:#9cdccc;fill-opacity:1;fill-rule:nonzero;stroke:none"
       inkscape:connector-curvature="0" />
    <path
       id="path3673"
       d="m 242.78516,262.19531 26.17968,45.33985 c 15.92969,-9.31641 29.25391,-22.63672 38.57032,-38.57032 l -45.33985,-26.17968 c -4.72265,7.99218 -11.41797,14.6914 -19.41015,19.41015 z m 25.8125,46.71094 -27.17579,-47.07422 0.42969,-0.25 c 8.17578,-4.73047 15,-11.55078 19.73047,-19.72656 l 0.25,-0.4336 47.07031,27.17969 -0.25,0.42969 c -9.5,16.42187 -23.20312,30.12109 -39.62109,39.62109 l -0.43359,0.25391"
       style="fill:#ffffff;fill-opacity:1;fill-rule:nonzero;stroke:none"
       inkscape:connector-curvature="0" />
    <path
       id="path3675"
       d="m 167.79687,242.10547 -46.20703,26.67578 c 9.45703,16.35156 23.08985,29.98047 39.4375,39.44141 l 26.67969,-46.20704 c -8.25781,-4.77734 -15.13672,-11.65625 -19.91016,-19.91015"
       style="fill:#a18acc;fill-opacity:1;fill-rule:nonzero;stroke:none"
       inkscape:connector-curvature="0" />
    <path
       id="path3677"
       d="m 122.27344,268.96484 c 9.32031,15.9336 22.64062,29.25391 38.57422,38.57032 l 26.17578,-45.33985 c -7.99219,-4.71875 -14.6875,-11.41797 -19.41016,-19.41015 z m 38.9375,39.94141 -0.4336,-0.25391 c -16.41797,-9.5 -30.12109,-23.19922 -39.62109,-39.62109 l -0.25,-0.42969 47.07031,-27.17969 0.25,0.4336 c 4.73047,8.17578 11.55469,14.99609 19.73047,19.72656 l 0.43359,0.25 -27.17968,47.07422"
       style="fill:#ffffff;fill-opacity:1;fill-rule:nonzero;stroke:none"
       inkscape:connector-curvature="0" />
    <path
       id="path3679"
       d="m 308.22266,161.03125 -46.20704,26.67578 c 4.62891,8.00391 7.29297,17.28516 7.29297,27.19922 l 53.33203,0 c 0,-19.62891 -5.25,-38.02734 -14.41796,-53.875"
       style="fill:#d4eb85;fill-opacity:1;fill-rule:nonzero;stroke:none"
       inkscape:connector-curvature="0" />
    <path
       id="path3681"
       d="m 269.80859,214.40625 52.33203,0 c -0.0859,-18.51172 -4.95703,-36.71094 -14.10546,-52.69141 l -45.33985,26.17578 c 4.57422,8.07422 7.02735,17.21875 7.11328,26.51563 z m 52.83203,1 -53.83203,0 0,-0.5 c 0,-9.46094 -2.5,-18.77734 -7.22656,-26.94922 l -0.25,-0.43359 47.07031,-27.17578 0.25,0.42968 c 9.48047,16.38282 14.48828,35.10157 14.48828,54.12891 l 0,0.5 -0.5,0"
       style="fill:#ffffff;fill-opacity:1;fill-rule:nonzero;stroke:none"
       inkscape:connector-curvature="0" />
    <path
       id="path3683"
       d="m 187.70703,262.01562 -26.67969,46.20704 c 15.85157,9.16796 34.25,14.42187 53.875,14.42187 l 0,-53.33594 c -9.91015,0 -19.1914,-2.66015 -27.19531,-7.29297"
       style="fill:#82abde;fill-opacity:1;fill-rule:nonzero;stroke:none"
       inkscape:connector-curvature="0" />
    <path
       id="path3685"
       d="m 161.71094,308.03906 c 15.98437,9.14453 34.17968,14.01563 52.6914,14.10156 l 0,-52.33203 c -9.29297,-0.0859 -18.4375,-2.53906 -26.51172,-7.11328 z m 53.6914,15.10547 -0.5,0 c -19.02734,0 -37.74218,-5.01172 -54.125,-14.49219 l -0.42968,-0.25 27.17578,-47.07031 0.43359,0.25 c 8.17188,4.73047 17.48828,7.22656 26.94531,7.22656 l 0.5,0 0,54.33594"
       style="fill:#ffffff;fill-opacity:1;fill-rule:nonzero;stroke:none"
       inkscape:connector-curvature="0" />
    <path
       id="path3687"
       d="m 214.90234,269.30859 0,53.33594 c 19.62891,0 38.03125,-5.25391 53.87891,-14.42187 l -26.67969,-46.20704 c -8,4.62891 -17.28515,7.29297 -27.19922,7.29297"
       style="fill:#a1d9f5;fill-opacity:1;fill-rule:nonzero;stroke:none"
       inkscape:connector-curvature="0" />
    <path
       id="path3689"
       d="m 215.40234,269.80859 0,52.33203 c 18.51563,-0.0859 36.71094,-4.95703 52.69532,-14.10156 l -26.17969,-45.34375 c -8.07422,4.57422 -17.21875,7.02735 -26.51563,7.11328 z m -0.5,53.33594 -0.5,0 0,-54.33594 0.5,0 c 9.45703,0 18.77735,-2.49609 26.94922,-7.22656 l 0.4336,-0.25 27.17968,47.07031 -0.43359,0.25 c -16.38281,9.48047 -35.09766,14.49219 -54.12891,14.49219"
       style="fill:#ffffff;fill-opacity:1;fill-rule:nonzero;stroke:none"
       inkscape:connector-curvature="0" />
    <path
       id="path3691"
       d="m 214.90234,214.90625 0.004,0 27.19922,-47.10938 C 234.10156,163.16406 224.81641,160.5 214.90234,160.5 l 0,54.40625"
       style="fill:#fde8c2;fill-opacity:1;fill-rule:nonzero;stroke:none"
       inkscape:connector-curvature="0" />
    <path
       id="path3693"
       d="m 215.40234,161.00391 0,52.03515 26.01953,-45.05859 c -7.92578,-4.48438 -16.89843,-6.89063 -26.01953,-6.97656 z m -0.99609,55.76953 -0.004,-56.77344 0.5,0 c 9.63672,0 19.12891,2.54687 27.45313,7.36328 l 0.42969,0.25 -28.37891,49.16016"
       style="fill:#ffffff;fill-opacity:1;fill-rule:nonzero;stroke:none"
       inkscape:connector-curvature="0" />
    <path
       id="path3695"
       d="m 214.90234,214.90625 0,54.40234 c 9.91407,0 19.19922,-2.66406 27.19922,-7.29297 l -27.19922,-47.10937"
       style="fill:#c2ebfa;fill-opacity:1;fill-rule:nonzero;stroke:none"
       inkscape:connector-curvature="0" />
    <path
       id="path3697"
       d="m 215.40234,216.77344 0,52.03515 c 9.1211,-0.0859 18.09375,-2.49218 26.01563,-6.97656 z m -0.5,53.03515 -0.5,0 0,-56.76953 28.38282,49.16016 -0.4336,0.25 c -8.32422,4.8164 -17.8164,7.35937 -27.44922,7.35937"
       style="fill:#ffffff;fill-opacity:1;fill-rule:nonzero;stroke:none"
       inkscape:connector-curvature="0" />
    <path
       id="path3699"
       d="m 214.90625,214.90625 47.10937,27.19922 c 4.62891,-8.00391 7.29297,-17.28906 7.29297,-27.19922 l -54.40234,0"
       style="fill:#d7f0c7;fill-opacity:1;fill-rule:nonzero;stroke:none"
       inkscape:connector-curvature="0" />
    <path
       id="path3701"
       d="m 216.76953,215.40625 45.05859,26.01562 c 4.48438,-7.92187 6.89454,-16.89843 6.98047,-26.01562 z m 45.42578,27.37891 -49.15625,-28.37891 56.76953,0 0,0.5 c 0,9.63281 -2.54687,19.125 -7.36328,27.44922 l -0.25,0.42969"
       style="fill:#ffffff;fill-opacity:1;fill-rule:nonzero;stroke:none"
       inkscape:connector-curvature="0" />
    <path
       id="path3703"
       d="m 214.90234,214.90625 27.19922,47.10937 c 8.25781,-4.77734 15.13672,-11.65625 19.91406,-19.91015 l -47.10937,-27.19922 -0.004,0"
       style="fill:#d4f0eb;fill-opacity:1;fill-rule:nonzero;stroke:none"
       inkscape:connector-curvature="0" />
    <path
       id="path3705"
       d="m 216.26953,216.27344 26.01563,45.05468 c 7.83984,-4.63281 14.40625,-11.19921 19.04296,-19.04296 z m 25.65234,46.42578 -28.38281,-49.16016 49.15625,28.38281 -0.25,0.4336 c -4.8164,8.32812 -11.76562,15.27734 -20.09375,20.09375 l -0.42969,0.25"
       style="fill:#ffffff;fill-opacity:1;fill-rule:nonzero;stroke:none"
       inkscape:connector-curvature="0" />
    <path
       id="path3707"
       d="m 214.90625,214.90625 54.40234,0 c 0,-9.91406 -2.66406,-19.19531 -7.29297,-27.19922 l -47.10937,27.19922"
       style="fill:#f0f8c5;fill-opacity:1;fill-rule:nonzero;stroke:none"
       inkscape:connector-curvature="0" />
    <path
       id="path3709"
       d="m 216.76953,214.40625 52.03906,0 c -0.0859,-9.12109 -2.49218,-18.09375 -6.98047,-26.01563 z m 52.53906,1 -56.26953,0 49.15625,-28.38281 0.25,0.43359 c 4.81641,8.32031 7.36328,17.8125 7.36328,27.44922 l 0,0.5 -0.5,0"
       style="fill:#ffffff;fill-opacity:1;fill-rule:nonzero;stroke:none"
       inkscape:connector-curvature="0" />
    <path
       id="path3711"
       d="m 187.70703,262.01562 c 8.00391,4.63282 17.28516,7.29297 27.19531,7.29297 l 0,-54.40234 -27.19531,47.10937"
       style="fill:#c5d9f3;fill-opacity:1;fill-rule:nonzero;stroke:none"
       inkscape:connector-curvature="0" />
    <path
       id="path3713"
       d="m 188.39062,261.83203 c 7.92188,4.48438 16.89454,6.89063 26.01172,6.97656 l 0,-52.03515 z m 27.01172,7.97656 -0.5,0 c -9.63281,0 -19.125,-2.54297 -27.44531,-7.35937 l -0.43359,-0.25 28.3789,-49.16016 0,56.76953"
       style="fill:#ffffff;fill-opacity:1;fill-rule:nonzero;stroke:none"
       inkscape:connector-curvature="0" />
    <path
       id="path3715"
       d="m 242.10547,167.79687 -27.19922,47.10938 47.10937,-27.19922 c -4.77734,-8.25391 -11.65625,-15.13281 -19.91015,-19.91016"
       style="fill:#fffaca;fill-opacity:1;fill-rule:nonzero;stroke:none"
       inkscape:connector-curvature="0" />
    <path
       id="path3717"
       d="m 242.28516,168.48047 -26.01563,45.05859 45.05859,-26.01562 c -4.63281,-7.83985 -11.19921,-14.40625 -19.04296,-19.04297 z m -28.7461,47.79297 28.38281,-49.16016 0.4336,0.25 c 8.32812,4.82031 15.27344,11.76563 20.08984,20.09375 l 0.25391,0.43359 -49.16016,28.38282"
       style="fill:#ffffff;fill-opacity:1;fill-rule:nonzero;stroke:none"
       inkscape:connector-curvature="0" />
    <path
       id="path3719"
       d="M 214.90234,214.90625 167.79297,187.70703 C 163.16406,195.71094 160.5,204.99219 160.5,214.90625 l 54.40234,0"
       style="fill:#f5c5e1;fill-opacity:1;fill-rule:nonzero;stroke:none"
       inkscape:connector-curvature="0" />
    <path
       id="path3721"
       d="m 161.00391,214.40625 52.03515,0 -45.05859,-26.01563 c -4.48828,7.92188 -6.89453,16.89454 -6.97656,26.01563 z m 53.89843,1 -54.90234,0 0,-0.5 c 0,-9.63281 2.54687,-19.125 7.35937,-27.44922 l 0.25,-0.43359 49.16016,28.38281 -1.86719,0"
       style="fill:#ffffff;fill-opacity:1;fill-rule:nonzero;stroke:none"
       inkscape:connector-curvature="0" />
    <path
       id="path3723"
       d="m 187.70312,167.79687 c -8.2539,4.77344 -15.13281,11.65625 -19.91015,19.91016 l 47.10937,27.19922 -27.19922,-47.10938"
       style="fill:#facae6;fill-opacity:1;fill-rule:nonzero;stroke:none"
       inkscape:connector-curvature="0" />
    <path
       id="path3725"
       d="m 168.48047,187.52344 45.05859,26.01562 -26.01562,-45.05859 c -7.83985,4.63672 -14.41016,11.20312 -19.04297,19.04297 z m 47.78906,28.75 -49.16016,-28.38282 0.25,-0.43359 c 4.82032,-8.32812 11.76954,-15.27734 20.09375,-20.09375 l 0.4336,-0.25 28.38281,49.16016"
       style="fill:#ffffff;fill-opacity:1;fill-rule:nonzero;stroke:none"
       inkscape:connector-curvature="0" />
    <path
       id="path3727"
       d="m 214.90234,214.90625 0,-54.40625 c -9.91015,0 -19.19531,2.66406 -27.19922,7.29687 l 27.19922,47.10938"
       style="fill:#fac5b3;fill-opacity:1;fill-rule:nonzero;stroke:none"
       inkscape:connector-curvature="0" />
    <path
       id="path3729"
       d="m 188.39062,167.98047 26.01172,45.05859 0,-52.03515 c -9.11718,0.0859 -18.08984,2.49218 -26.01172,6.97656 z m 27.01172,48.79297 -28.3789,-49.16016 0.42968,-0.25 C 195.77734,162.54687 205.26953,160 214.90234,160 l 0.5,0 0,56.77344"
       style="fill:#ffffff;fill-opacity:1;fill-rule:nonzero;stroke:none"
       inkscape:connector-curvature="0" />
    <path
       id="path3731"
       d="m 214.90234,214.90625 -54.40234,0 c 0,9.91016 2.66406,19.19531 7.29687,27.19922 l 47.10547,-27.19922"
       style="fill:#e1cae8;fill-opacity:1;fill-rule:nonzero;stroke:none"
       inkscape:connector-curvature="0" />
    <path
       id="path3733"
       d="m 161.00391,215.40625 c 0.082,9.11719 2.48828,18.09375 6.97656,26.01562 l 45.05859,-26.01562 z m 6.60937,27.37891 -0.25,-0.42969 C 162.54687,234.03125 160,224.53906 160,214.90625 l 0,-0.5 56.76953,0 -49.15625,28.37891"
       style="fill:#ffffff;fill-opacity:1;fill-rule:nonzero;stroke:none"
       inkscape:connector-curvature="0" />
    <path
       id="path3735"
       d="m 214.90234,214.90625 -47.10547,27.19922 c 4.77344,8.2539 11.65235,15.13281 19.91016,19.91015 l 27.19531,-47.10937"
       style="fill:#ccc5e8;fill-opacity:1;fill-rule:nonzero;stroke:none"
       inkscape:connector-curvature="0" />
    <path
       id="path3737"
       d="m 168.48047,242.28516 c 4.63281,7.84375 11.20312,14.41015 19.04297,19.04296 l 26.01562,-45.05468 z m 19.41015,20.41406 -0.43359,-0.25 c -8.32812,-4.81641 -15.27734,-11.76563 -20.09375,-20.09375 l -0.25391,-0.4336 49.16016,-28.38281 -28.37891,49.16016"
       style="fill:#ffffff;fill-opacity:1;fill-rule:nonzero;stroke:none"
       inkscape:connector-curvature="0" />
    <path
       id="path3739"
       d="m 238.46094,214.90625 c 0,-13.00781 -10.54688,-23.55469 -23.5586,-23.55469 -13.00781,0 -23.55078,10.54688 -23.55078,23.55469 0,13.00781 10.54297,23.55469 23.55078,23.55469 13.01172,0 23.5586,-10.54688 23.5586,-23.55469"
       style="fill:#ffffff;fill-opacity:1;fill-rule:nonzero;stroke:none"
       inkscape:connector-curvature="0" />
  </g>
</svg>
